<svg width="20" height="20" viewBox="0 0 20 20" fill="none" xmlns="http://www.w3.org/2000/svg">
<path d="M18.78 17.7197L13.6613 12.601C14.6529 11.3763 15.2498 9.82 15.2498 8.12503C15.2498 4.19657 12.0534 1.00009 8.1249 1.00009C4.19644 1.00009 1 4.19654 1 8.125C1 12.0535 4.19648 15.2499 8.12493 15.2499C9.8199 15.2499 11.3761 14.653 12.6009 13.6615L17.7196 18.7802C17.8658 18.9264 18.0578 18.9999 18.2498 18.9999C18.4418 18.9999 18.6338 18.9264 18.7801 18.7802C19.0733 18.4869 19.0733 18.0129 18.78 17.7197ZM8.12493 13.7499C5.02296 13.7499 2.5 11.227 2.5 8.125C2.5 5.02302 5.02296 2.50005 8.12493 2.50005C11.2269 2.50005 13.7499 5.02302 13.7499 8.125C13.7499 11.227 11.2269 13.7499 8.12493 13.7499Z" fill="#CFCFCF"/>
</svg>
